# Blender v3.0.0 OBJ File: 'giomap.blend'
# www.blender.org
o Plane
v 1.000000 0.000000 -1.000000
v -1.000000 0.000000 -1.000000
v 1.000000 0.000000 1.000000
v -1.000000 0.000000 1.000000
v 1.000000 0.000000 0.000000
v 0.000000 0.000000 -1.000000
v -1.000000 0.000000 0.000000
v 0.000000 0.000000 1.000000
v 0.000000 0.000000 0.000000
v 0.500000 0.000000 1.000000
v 1.000000 0.000000 0.500000
v 0.000000 0.000000 0.500000
v 0.500000 0.000000 0.000000
v 0.500000 0.000000 0.500000
v -0.500000 0.000000 -1.000000
v -1.000000 0.000000 -0.500000
v 0.000000 0.000000 -0.500000
v -0.500000 0.000000 0.000000
v -0.500000 0.000000 -0.500000
v 0.000000 0.000000 -0.250000
v -0.250000 0.000000 0.000000
v -0.500000 0.000000 -0.250000
v -0.250000 0.000000 -0.500000
v -0.250000 0.000000 -0.250000
v 0.000000 0.000000 -0.125000
v -0.125000 0.000000 0.000000
v -0.250000 0.000000 -0.125000
v -0.125000 0.000000 -0.250000
v -0.125000 0.000000 -0.125000
v -0.250000 0.006264 -0.250000
v -0.250000 0.006264 -0.125000
v -0.125000 0.006264 -0.250000
v -0.125000 0.006264 -0.125000
v -0.250000 1.534431 -0.250000
v -0.250000 1.534431 -0.125000
v -0.125000 1.534431 -0.250000
v -0.125000 1.534431 -0.125000
v -0.500000 0.662452 -0.250000
v -0.500000 0.662452 0.000000
v -0.250000 0.662452 0.000000
v -0.250000 0.662452 -0.125000
v -0.250000 0.662452 -0.250000
v -0.500000 0.000000 -0.375000
v -0.375000 0.000000 -0.500000
v -0.250000 0.000000 -0.375000
v -0.375000 0.000000 -0.250000
v -0.375000 0.000000 -0.375000
v -0.250000 0.642135 -0.375000
v -0.250000 0.642135 -0.250000
v -0.375000 0.642135 -0.250000
v -0.375000 0.642135 -0.375000
v -0.500000 0.602057 -0.375000
v -0.500000 0.602057 -0.250000
v -0.375000 0.602057 -0.250000
v -0.375000 0.602057 -0.375000
v 0.000000 0.629679 -1.000000
v -0.500000 0.629679 -1.000000
v 0.000000 0.629679 -0.500000
v -0.500000 0.629679 -0.500000
v -0.250000 0.629679 -0.500000
v -0.375000 0.629679 -0.500000
v -0.500000 0.536615 -1.000000
v -1.000000 0.536615 -1.000000
v -1.000000 0.536615 -0.500000
v -0.500000 0.536615 -0.500000
v -1.000000 0.288805 -0.500000
v -1.000000 0.288805 0.000000
v -0.500000 0.288805 0.000000
v -0.500000 0.288805 -0.250000
v -0.500000 0.288805 -0.500000
v -0.500000 0.288805 -0.375000
v -1.000000 0.136918 0.000000
v -1.000000 0.136918 1.000000
v 0.000000 0.136918 1.000000
v 0.000000 0.136918 0.500000
v -0.125000 0.136918 0.000000
v 0.000000 0.136918 0.000000
v -0.500000 0.136918 0.000000
v -0.250000 0.136918 0.000000
v 0.000000 0.101791 0.000000
v 0.000000 0.101791 0.500000
v 0.500000 0.101791 0.000000
v 0.500000 0.101791 0.500000
v 0.000000 0.043473 0.500000
v 0.000000 0.043473 1.000000
v 0.500000 0.043473 1.000000
v 0.500000 0.043473 0.500000
v 0.500000 0.017144 1.000000
v 1.000000 0.017144 1.000000
v 1.000000 0.017144 0.500000
v 0.500000 0.017144 0.500000
v 1.000000 0.000000 0.500000
v 1.000000 0.000000 0.000000
v 0.500000 0.000000 0.000000
v 0.500000 0.000000 0.500000
v 1.000000 0.009944 0.500000
v 1.000000 0.009944 0.000000
v 0.500000 0.009944 0.000000
v 0.500000 0.009944 0.500000
v 0.990174 -0.000130 -0.177593
v 0.490174 -0.000130 -0.177593
v -0.250000 -0.131363 -0.125000
v -0.250000 -0.131363 0.000000
v -0.125000 -0.131363 0.000000
v -0.125000 -0.131363 -0.125000
v 0.000000 -0.239213 -0.125000
v 0.000000 -0.239213 0.000000
v -0.125000 -0.239213 0.000000
v -0.125000 -0.239213 -0.125000
v -0.125000 -0.589242 -0.250000
v 0.000000 -0.589242 -0.250000
v 0.000000 -0.589242 -0.125000
v -0.125000 -0.589242 -0.125000
v -1.000000 1.287553 0.000000
v -1.000000 1.287553 1.000000
v 0.000000 1.287553 1.000000
v 0.000000 0.653749 1.000000
v 0.500000 0.653749 1.000000
v 0.500000 0.564649 1.000000
v 1.000000 0.564649 1.000000
v 1.000000 0.563137 1.000000
v 1.000000 0.563137 0.500000
v 1.000000 0.563478 0.500000
v 1.000000 0.563478 0.000000
v 1.000000 0.522729 0.000000
v 0.990174 0.512655 -0.177593
v 1.000000 0.563918 -1.000000
v 1.000000 0.563918 0.000000
v 1.000000 0.555026 -1.000000
v 0.000000 0.555026 -1.000000
v 1.000000 1.201146 -1.000000
v 0.000000 1.201146 -1.000000
v 0.000000 1.203191 -1.000000
v -0.500000 1.203191 -1.000000
v -0.500000 1.405787 -1.000000
v -1.000000 1.405787 -1.000000
v -1.000000 1.422707 -1.000000
v -1.000000 1.422707 -0.500000
v -1.000000 1.430689 -0.500000
v -1.000000 1.430689 0.000000
vt -0.020465 -4.977618
vt -1.071049 -8.966556
vt -0.020465 -8.966556
vt 1.806363 16.101051
vt 1.472787 12.112103
vt 1.806363 12.112103
vt -9.703289 -12.955508
vt -8.744151 -12.955508
vt -8.744151 -8.966559
vt 12.699207 17.056997
vt 10.483176 16.059761
vt 12.699207 16.059761
vt 1.472787 16.101044
vt 1.341241 12.112104
vt 1.472787 12.112104
vt -8.744151 -4.977611
vt -8.744151 -4.977611
vt -8.744151 -4.977611
vt -7.963109 18.646524
vt -8.744162 14.657576
vt -7.963109 14.657576
vt 16.202106 10.209141
vt 14.283827 15.494113
vt 14.283827 10.209141
vt 6.646627 10.425235
vt 1.815038 8.430759
vt 6.646627 8.430759
vt 5.651589 10.425235
vt 1.815038 14.706297
vt 1.815038 10.425235
vt 10.483176 3.495340
vt 11.442312 2.447334
vt 11.442312 3.495340
vt -12.580702 -12.955508
vt -11.621562 -14.949985
vt -10.662428 -13.952746
vt 17.161242 8.213375
vt 16.202106 13.016523
vt 16.202106 8.213375
vt -0.020465 -0.988681
vt 1.815038 0.008557
vt -0.020465 0.008557
vt 16.683876 -2.637255
vt 17.643015 -7.338166
vt 17.643015 -2.637255
vt 15.242969 -2.032398
vt 14.283828 -1.982427
vt 14.283828 -2.032398
vt 14.283825 2.718486
vt 13.324687 14.910052
vt 13.324687 2.718484
vt 11.888188 -15.896454
vt 10.929050 -15.846483
vt 10.929050 -15.896454
vt 14.283825 2.668512
vt 13.324687 2.668512
vt 16.202106 -2.032398
vt 15.242965 -1.982426
vt 15.242965 -2.032398
vt -7.182058 14.657573
vt -6.222920 15.654809
vt -7.182058 15.654809
vt 15.242969 -1.982426
vt 14.283828 10.209141
vt 11.888188 -15.846483
vt 10.929050 -3.654916
vt 16.202106 -1.982426
vt 15.242965 10.209141
vt 12.847331 -4.977611
vt 14.765606 -4.977611
vt 14.765606 -3.980373
vt 11.442313 8.780314
vt 12.401450 14.065290
vt 10.483176 14.065290
vt 0.847224 6.989216
vt -1.071051 12.274193
vt -1.071051 6.989216
vt 12.401446 3.495340
vt 11.442312 8.780314
vt 10.483176 8.780314
vt 6.610727 10.425235
vt 5.651589 15.548120
vt 5.651589 10.425235
vt -12.580702 -15.947222
vt -12.580702 -14.949985
vt -12.580702 -16.944460
vt -11.621562 -15.947222
vt 1.815038 15.703538
vt 2.774174 14.706302
vt 2.774174 15.703538
vt 17.161242 -2.032398
vt 16.202106 3.090488
vt 16.202106 -2.032398
vt 17.161238 3.090490
vt 16.202099 8.213378
vt 16.202099 3.090490
vt 1.806363 6.989216
vt 0.847225 12.112104
vt 0.847225 6.989216
vt 2.774174 14.706297
vt 3.733310 15.703530
vt 2.774174 15.703530
vt 17.643015 -12.141312
vt 16.683876 -7.338166
vt 16.683876 -12.141313
vt 17.161240 13.016521
vt 16.202099 17.819666
vt 16.202099 13.016521
vt 17.643017 -16.944460
vt 16.683876 -12.141313
vt 16.683876 -16.944460
vt 12.847328 -12.955508
vt 13.806468 -16.944460
vt 14.765603 -16.944460
vt -12.580713 4.605016
vt -16.417250 9.628531
vt -16.417250 4.605016
vt 1.815038 7.433522
vt 6.646627 7.433522
vt 10.483178 2.447334
vt 6.646625 7.470849
vt 6.646627 2.447334
vt 1.815038 6.436285
vt 6.646627 6.436285
vt 1.815038 2.447334
vt 6.646627 2.447334
vt -12.580712 13.465611
vt -8.744162 17.454559
vt -12.580712 17.454559
vt 13.324687 -2.032398
vt 9.488135 2.248664
vt 9.488135 -2.032398
vt -12.580712 9.628531
vt -16.417250 13.909593
vt -16.417250 9.628531
vt 9.488139 -8.966558
vt 5.651589 -4.685496
vt 5.651591 -8.966559
vt -1.071059 15.304862
vt -1.071059 16.302101
vt -4.907610 17.299334
vt 5.651591 -8.966558
vt 1.815038 -6.662501
vt 1.815038 -8.966559
vt 12.699207 18.054230
vt 10.483176 17.056997
vt 10.483176 14.065290
vt 12.699207 14.065290
vt -14.201221 17.898540
vt -16.417250 13.909593
vt -14.201221 13.909593
vt 1.144979 16.263142
vt -1.071051 12.274191
vt 1.144979 12.274191
vt 2.765501 -8.966559
vt -1.071049 -16.944460
vt 6.602052 -12.955508
vt -0.020465 1.005795
vt -1.071049 0.008557
vt -1.071049 -6.672493
vt -8.744151 -5.580178
vt -8.744151 -6.672494
vt -1.071049 -0.988681
vt -0.020465 3.000269
vt -1.071049 1.005795
vt -1.071049 -16.944460
vt -8.744151 -15.852144
vt -8.744151 -16.944460
vt -1.071049 -4.977618
vt -0.020465 6.989219
vt -1.071049 3.000269
vt -8.744151 14.657576
vt -4.907599 10.668625
vt -4.907601 14.657576
vt -7.182056 18.646513
vt -7.963109 14.657576
vt -7.182056 14.657576
vt 13.324690 6.237615
vt 12.543639 2.248664
vt 13.324690 2.248664
vt 13.324687 10.226564
vt 12.543639 6.237615
vt 12.847328 -4.977610
vt 16.683880 -8.966559
vt 16.683880 -4.977610
vt 13.324687 14.215515
vt 12.991113 10.226564
vt 13.324687 10.226564
vt 13.324687 18.204454
vt 12.991115 14.215517
vt 13.324687 14.215517
vt -1.071059 3.599472
vt -4.907610 3.946298
vt -4.907609 3.599472
vt 12.847328 -12.955508
vt 16.683880 -8.966559
vt 12.847328 -8.966559
vt 12.859566 14.215515
vt 12.728019 10.226564
vt 12.859566 10.226564
vt 12.991115 14.215515
vt 12.859568 10.226564
vt 12.991115 10.226564
vt -8.744162 4.605016
vt -12.580712 4.741788
vt -12.580712 4.605016
vt 12.543639 10.226564
vt 12.467334 6.237615
vt 12.543639 6.237615
vt -8.744151 -4.977611
vt -8.744151 -4.977611
vt -8.744151 -4.977611
vt -8.744151 -4.977611
vt -8.744151 -4.977611
vt 6.646625 16.035221
vt 10.483176 12.046270
vt 10.483176 16.035221
vt 10.927305 -4.977610
vt 10.851004 -8.966559
vt 10.927305 -8.966559
vt 12.467336 2.248664
vt 12.543639 2.248664
vt -1.071070 8.815016
vt -4.907610 8.894350
vt -4.907610 8.815016
vt -12.836345 17.898540
vt -14.201221 13.987983
vt -12.836345 13.909593
vt 11.888186 -2.657679
vt 12.847324 -3.654916
vt 12.847324 -2.657679
vt 11.888188 -16.944460
vt 0.987500 1.005795
vt 12.847326 -16.944460
vt 12.847326 -15.896454
vt 10.929050 -2.657679
vt 11.888186 -3.654916
vt 11.888186 -2.657679
vt -0.020465 -1.985917
vt 1.815038 -0.988681
vt 9.488138 -2.886831
vt 10.447276 -4.795248
vt 10.447276 -2.886831
vt 14.765603 -3.069195
vt 15.724733 -4.977611
vt 15.724733 -3.069195
vt -6.222917 15.654813
vt -5.263781 14.657576
vt -5.263781 15.654813
vt 17.161242 2.668512
vt 18.120375 -2.032399
vt 18.120375 2.668512
vt 14.283825 -2.032399
vt 17.161240 7.791402
vt 18.120375 3.090490
vt 18.120375 7.791402
vt -1.071049 -15.852144
vt -8.744151 -6.672494
vt -1.071049 -5.580178
vt -8.744151 3.599469
vt -1.071059 3.946298
vt -4.907610 8.815016
vt -8.744162 4.741788
vt -12.580712 9.109730
vt -8.744162 9.109730
vt -12.580712 13.465611
vt -12.580712 9.109730
vt -1.071070 8.894352
vt -4.907610 13.310389
vt 10.851003 -4.875618
vt 9.488135 -8.886190
vt 10.851003 -8.966559
vt 10.929050 -8.966559
vt 6.602050 -16.944460
vt 10.929050 -16.944460
vt -8.744151 -4.977610
vt -16.417250 -0.549671
vt -16.417248 -4.977611
vt -8.744151 -0.549671
vt -16.417250 4.605014
vt 10.483176 7.470849
vt 6.646625 12.046270
vt 9.488139 -4.685496
vt 5.651589 2.248664
vt -4.907610 3.599472
vt -8.744151 10.668623
vt -8.744151 3.599472
vt 5.651591 -6.662501
vt 1.815038 2.447334
vt 1.472787 16.101051
vt -16.417250 -4.977611
vt -16.417250 -12.955508
vt -10.662428 -12.955508
vt 1.341241 16.101044
vt -8.744162 18.646524
vt 16.202099 15.494113
vt 1.815038 10.425235
vt 5.651589 14.706297
vt 10.483178 2.447334
vt -10.662428 -14.949985
vt 17.161242 13.016523
vt 16.683876 -7.338166
vt 14.283822 14.910052
vt -6.222920 14.657573
vt 15.242965 10.209141
vt 11.888186 -3.654916
vt 16.202099 10.209141
vt 14.765606 -2.983136
vt 12.847331 -2.983137
vt 10.483176 8.780314
vt 12.401450 8.780314
vt 0.847224 12.274193
vt 12.401446 8.780314
vt 6.610727 15.548120
vt -11.621562 -16.944460
vt 1.815038 14.706302
vt 17.161242 3.090488
vt 17.161238 8.213378
vt 1.806363 12.112104
vt 3.733310 14.706297
vt 17.643015 -7.338166
vt 17.161238 17.819666
vt 17.643017 -12.141313
vt 16.683880 -16.944460
vt 16.683880 -12.955508
vt 12.847328 -16.944460
vt -12.580713 9.628531
vt -8.744162 13.465611
vt 13.324687 2.248664
vt -12.580712 13.909593
vt -1.071059 17.299339
vt -4.907610 13.310389
vt -1.071059 13.310389
vt 10.483176 18.054230
vt -16.417250 17.898540
vt -1.071051 16.263142
vt 6.602052 -8.966559
vt 5.642913 -8.966559
vt 4.683775 -8.966559
vt -1.071049 -8.966559
vt 6.602052 -16.944460
vt -1.071049 6.989219
vt -8.744151 10.668625
vt -7.963109 18.646513
vt 12.543639 10.226564
vt 12.847328 -8.966559
vt 12.991113 14.215515
vt 12.991115 18.204454
vt 16.683880 -12.955508
vt 12.728019 14.215515
vt 12.859568 14.215515
vt 12.467334 10.226564
vt 6.646625 12.046270
vt 10.851004 -4.977610
vt -14.201221 17.976931
vt 11.888186 -3.654916
vt 10.929050 -16.944460
vt 0.987500 0.008557
vt 10.929050 -3.654916
vt 1.815038 -1.985917
vt 9.488138 -4.795248
vt 14.765603 -4.977611
vt -6.222917 14.657576
vt 17.161242 -2.032399
vt 13.324687 -2.032399
vt 17.161240 3.090490
vt -1.071049 -6.672494
vt -1.071050 3.599472
vt -1.071059 8.815016
vt -8.744162 9.109730
vt -8.744162 13.465611
vt -1.071071 13.310390
vt 9.488135 -4.795248
vt 6.602050 -8.966559
vt -8.744151 4.605014
vt 10.483176 12.046270
vt 9.488139 2.248664
vt -4.907610 10.668625
vt 5.651589 2.447334
vn 1.0000 0.0000 0.0000
vn -1.0000 0.0000 0.0000
vn 0.0000 1.0000 0.0000
vn 0.0000 0.0000 1.0000
vn 0.0000 0.0000 -1.0000
vn 0.0000 -0.9984 0.0566
vn 0.9985 0.0000 -0.0552
s off
f 12/1/1 74/2/1 8/3/1
f 8/4/2 84/5/2 12/6/2
f 25/7/3 9/8/3 13/9/3
f 43/10/1 69/11/1 22/12/1
f 11/13/1 89/14/1 3/15/1
f 5/16/4 94/17/4 93/18/4
f 14/19/4 81/20/4 12/21/4
f 18/22/2 38/23/2 22/24/2
f 17/25/4 60/26/4 23/27/4
f 16/28/2 63/29/2 2/30/2
f 21/31/1 102/32/1 27/33/1
f 17/34/3 45/35/3 28/36/3
f 22/37/2 52/38/2 43/39/2
f 9/40/5 108/41/5 26/42/5
f 20/43/2 112/44/2 25/45/2
f 27/46/2 30/47/2 24/48/2
f 32/49/1 37/50/1 33/51/1
f 29/52/4 31/53/4 27/54/4
f 28/55/1 33/51/1 29/56/1
f 24/57/5 32/58/5 28/59/5
f 34/60/3 37/61/3 36/62/3
f 31/63/2 34/64/2 30/47/2
f 33/65/4 35/66/4 31/53/4
f 30/67/5 36/68/5 32/58/5
f 39/69/3 40/70/3 41/71/3
f 46/72/5 38/73/5 42/74/5
f 21/75/4 39/76/4 18/77/4
f 24/78/1 41/79/1 27/33/1
f 27/33/1 40/80/1 21/31/1
f 46/81/2 51/82/2 47/83/2
f 44/84/3 45/35/3 23/85/3
f 19/86/3 47/87/3 44/84/3
f 51/88/3 49/89/3 48/90/3
f 24/91/4 50/92/4 46/93/4
f 45/94/1 49/95/1 24/96/1
f 47/97/5 48/98/5 45/99/5
f 52/100/3 54/101/3 55/102/3
f 47/103/1 54/104/1 46/105/1
f 43/106/5 55/107/5 47/108/5
f 46/109/4 53/110/4 22/111/4
f 57/112/3 61/113/3 60/114/3
f 6/115/1 58/116/1 17/117/1
f 23/27/4 61/118/4 44/119/4
f 15/120/5 56/121/5 6/122/5
f 44/119/4 59/123/4 19/124/4
f 19/124/2 57/125/2 15/126/2
f 63/127/3 65/128/3 62/129/3
f 19/130/4 64/131/4 16/132/4
f 15/133/1 65/134/1 19/135/1
f 2/136/5 62/137/5 15/138/5
f 69/139/3 71/140/3 66/141/3
f 7/142/2 66/143/2 16/144/2
f 19/145/1 71/146/1 43/10/1
f 22/12/1 68/147/1 18/148/1
f 16/149/5 70/150/5 19/151/5
f 18/152/4 67/153/4 7/154/4
f 78/155/3 73/156/3 75/157/3
f 21/158/5 76/159/5 26/42/5
f 4/160/2 72/161/2 7/162/2
f 26/42/5 77/163/5 9/40/5
f 18/164/5 79/165/5 21/158/5
f 8/166/4 73/167/4 4/168/4
f 9/40/1 75/169/1 12/1/1
f 7/170/5 78/171/5 18/164/5
f 80/172/3 83/173/3 82/174/3
f 13/175/1 83/176/1 14/177/1
f 9/178/5 82/179/5 13/180/5
f 12/181/2 80/182/2 9/178/2
f 84/183/3 86/184/3 87/185/3
f 12/186/5 87/187/5 14/188/5
f 14/189/1 86/190/1 10/191/1
f 10/192/4 85/193/4 8/194/4
f 91/195/3 89/196/3 90/197/3
f 14/198/5 90/199/5 11/200/5
f 10/201/2 91/202/2 14/203/2
f 3/204/4 88/205/4 10/206/4
f 92/207/4 99/208/4 95/209/4
f 13/210/4 95/211/4 94/17/4
f 11/212/4 93/18/4 92/213/4
f 14/214/4 92/213/4 95/211/4
f 98/215/3 96/216/3 97/217/3
f 94/218/5 97/219/5 93/220/5
f 95/209/2 98/221/2 94/222/2
f 93/223/1 96/224/1 92/225/1
f 98/226/6 100/227/6 97/228/6
f 102/229/3 104/230/3 105/231/3
f 27/54/4 105/232/4 29/52/4
f 26/42/5 103/233/5 21/158/5
f 29/52/2 104/234/2 26/235/2
f 109/236/3 107/237/3 106/238/3
f 25/239/2 107/240/2 9/40/2
f 29/241/4 106/242/4 25/243/4
f 26/244/1 109/245/1 29/246/1
f 110/247/3 112/248/3 111/249/3
f 28/250/4 111/251/4 20/252/4
f 29/56/1 110/253/1 28/55/1
f 25/254/5 113/255/5 29/256/5
f 74/257/4 115/258/4 73/167/4
f 73/259/2 114/260/2 72/161/2
f 86/261/4 117/262/4 85/193/4
f 89/263/4 119/264/4 88/205/4
f 89/265/2 122/266/2 90/267/2
f 97/268/1 123/269/1 96/224/1
f 97/270/7 126/271/7 125/272/7
f 5/273/2 127/274/2 1/275/2
f 1/276/4 130/277/4 6/278/4
f 129/279/4 132/280/4 130/277/4
f 57/281/5 133/282/5 56/121/5
f 63/283/5 135/284/5 62/137/5
f 63/285/1 138/286/1 64/287/1
f 67/288/2 139/289/2 66/143/2
f 12/1/1 75/169/1 74/2/1
f 8/4/2 85/290/2 84/5/2
f 5/16/3 1/291/3 13/9/3
f 1/291/3 6/292/3 17/34/3
f 17/34/3 20/293/3 13/9/3
f 20/293/3 25/7/3 13/9/3
f 1/291/3 17/34/3 13/9/3
f 43/10/1 71/146/1 69/11/1
f 11/13/1 90/294/1 89/14/1
f 5/16/4 13/210/4 94/17/4
f 14/19/4 83/295/4 81/20/4
f 18/22/2 39/296/2 38/23/2
f 17/25/4 58/297/4 60/26/4
f 16/28/2 64/298/2 63/29/2
f 21/31/1 103/299/1 102/32/1
f 20/293/3 17/34/3 28/36/3
f 17/34/3 23/85/3 45/35/3
f 45/35/3 24/300/3 28/36/3
f 22/37/2 53/301/2 52/38/2
f 9/40/5 107/240/5 108/41/5
f 20/43/2 111/302/2 112/44/2
f 27/46/2 31/63/2 30/47/2
f 32/49/1 36/303/1 37/50/1
f 29/52/4 33/65/4 31/53/4
f 28/55/1 32/49/1 33/51/1
f 24/57/5 30/67/5 32/58/5
f 34/60/3 35/304/3 37/61/3
f 31/63/2 35/305/2 34/64/2
f 33/65/4 37/306/4 35/66/4
f 30/67/5 34/307/5 36/68/5
f 41/71/3 42/308/3 38/309/3
f 38/309/3 39/69/3 41/71/3
f 42/74/5 24/310/5 46/72/5
f 46/72/5 22/311/5 38/73/5
f 21/75/4 40/312/4 39/76/4
f 24/78/1 42/313/1 41/79/1
f 27/33/1 41/79/1 40/80/1
f 46/81/2 50/314/2 51/82/2
f 44/84/3 47/87/3 45/35/3
f 19/86/3 43/315/3 47/87/3
f 51/88/3 50/316/3 49/89/3
f 24/91/4 49/317/4 50/92/4
f 45/94/1 48/318/1 49/95/1
f 47/97/5 51/319/5 48/98/5
f 52/100/3 53/320/3 54/101/3
f 47/103/1 55/321/1 54/104/1
f 43/106/5 52/322/5 55/107/5
f 46/109/4 54/323/4 53/110/4
f 58/324/3 56/325/3 60/114/3
f 56/325/3 57/112/3 60/114/3
f 57/112/3 59/326/3 61/113/3
f 6/115/1 56/327/1 58/116/1
f 23/27/4 60/26/4 61/118/4
f 15/120/5 57/281/5 56/121/5
f 44/119/4 61/118/4 59/123/4
f 19/124/2 59/123/2 57/125/2
f 63/127/3 64/328/3 65/128/3
f 19/130/4 65/329/4 64/131/4
f 15/133/1 62/330/1 65/134/1
f 2/136/5 63/283/5 62/137/5
f 71/140/3 70/331/3 66/141/3
f 66/141/3 67/332/3 69/139/3
f 67/332/3 68/333/3 69/139/3
f 7/142/2 67/288/2 66/143/2
f 19/145/1 70/334/1 71/146/1
f 22/12/1 69/11/1 68/147/1
f 16/149/5 66/335/5 70/150/5
f 18/152/4 68/336/4 67/153/4
f 75/157/3 77/337/3 76/338/3
f 79/339/3 78/155/3 75/157/3
f 78/155/3 72/340/3 73/156/3
f 75/157/3 76/338/3 79/339/3
f 73/156/3 74/341/3 75/157/3
f 21/158/5 79/165/5 76/159/5
f 4/160/2 73/259/2 72/161/2
f 26/42/5 76/159/5 77/163/5
f 18/164/5 78/171/5 79/165/5
f 8/166/4 74/257/4 73/167/4
f 9/40/1 77/163/1 75/169/1
f 7/170/5 72/342/5 78/171/5
f 80/172/3 81/343/3 83/173/3
f 13/175/1 82/344/1 83/176/1
f 9/178/5 80/182/5 82/179/5
f 12/181/2 81/345/2 80/182/2
f 84/183/3 85/346/3 86/184/3
f 12/186/5 84/347/5 87/187/5
f 14/189/1 87/348/1 86/190/1
f 10/192/4 86/261/4 85/193/4
f 91/195/3 88/349/3 89/196/3
f 14/198/5 91/350/5 90/199/5
f 10/201/2 88/351/2 91/202/2
f 3/204/4 89/263/4 88/205/4
f 92/207/4 96/352/4 99/208/4
f 13/210/4 14/214/4 95/211/4
f 11/212/4 5/16/4 93/18/4
f 14/214/4 11/212/4 92/213/4
f 98/215/3 99/353/3 96/216/3
f 94/218/5 98/354/5 97/219/5
f 95/209/2 99/208/2 98/221/2
f 93/223/1 97/268/1 96/224/1
f 98/226/6 101/355/6 100/227/6
f 102/229/3 103/356/3 104/230/3
f 27/54/4 102/357/4 105/232/4
f 26/42/5 104/358/5 103/233/5
f 29/52/2 105/232/2 104/234/2
f 109/236/3 108/359/3 107/237/3
f 25/239/2 106/360/2 107/240/2
f 29/241/4 109/361/4 106/242/4
f 26/244/1 108/362/1 109/245/1
f 110/247/3 113/363/3 112/248/3
f 28/250/4 110/364/4 111/251/4
f 29/56/1 113/365/1 110/253/1
f 25/254/5 112/366/5 113/255/5
f 74/257/4 116/367/4 115/258/4
f 73/259/2 115/368/2 114/260/2
f 86/261/4 118/369/4 117/262/4
f 89/263/4 120/370/4 119/264/4
f 89/265/2 121/371/2 122/266/2
f 97/268/1 124/372/1 123/269/1
f 97/270/7 100/373/7 126/271/7
f 5/273/2 128/374/2 127/274/2
f 1/276/4 129/279/4 130/277/4
f 129/279/4 131/375/4 132/280/4
f 57/281/5 134/376/5 133/282/5
f 63/283/5 136/377/5 135/284/5
f 63/285/1 137/378/1 138/286/1
f 67/288/2 140/379/2 139/289/2
